<?xml version="1.0" encoding="UTF-8"?><svg id="c" xmlns="http://www.w3.org/2000/svg" viewBox="0 0 1267.6 1045.36"><defs><style>.d{fill:#ae0000;}</style></defs><path class="d" d="m690.79,368.92c20.37-11.69,21.4-35.83,32.78-53.71,11.93-10.01,23.56-25.09,40.09-26.01,1.83,7.82-3.55,15.09-3.43,22.98-3.8,27.53,21.93,45.2,3.79,48.31-24.45,1.63-44.81,17.8-69.35,19.07-12.37,2.76-14.3-4.62-3.87-10.65Z"/><path class="d" d="m1038.09,83.35c-.18-.03-.33-.11-.48-.22.15.12.31.19.48.22Z"/><path class="d" d="m777.83,382.28c.02-.57-.03-1.16-.11-1.77-.12-.89-.26-1.81-.23-2.69-.03.89.12,1.8.23,2.69.08.61.12,1.21.11,1.77Z"/><path class="d" d="m788.03,403.86c-2.29,3.02-3.7,6.51-5.33,9.85,1.64-3.34,3.04-6.83,5.33-9.85Z"/><path class="d" d="m1222.21,317.4c-.68-.63-1.37-1.25-2.05-1.88-1.61-3.68-5.59-4.35-8.35-6.58,0,0-.1-.1-.1-.1-7.46-8.86-17.39-15.09-25.14-23.66-6.98-7.72-14.22-15.19-21.34-22.77-.68-.63-1.37-1.27-2.05-1.9l-6.73-7.21h0c-10.12-12.44-20.25-24.88-30.36-37.33-.93-1.15-1.88-2.31-2.68-3.55-.9-1.4-3.08-3.06-1.31-4.51,1.45-1.19,3.41.55,4.74,1.77,8.18,7.44,16.2,15.06,24.49,22.38,5.63,4.97,10.5,10.87,17.15,14.76.78-3.85-.69-7.29-5.24-12.72-8.93-10.64-17.21-21.93-26.99-31.71-5.55-5.55-11.36-11-17.16-16.37-10.08-9.33-20.48-18.3-31.74-26.21-.67-.47-1.44-.81-2.16-1.21-.65-.72-1.3-1.45-1.95-2.17-5.09-2-8.93-6.01-13.86-8.38-7.4-3.55-15.03-5.86-23.18-6.55-.95-.34-1.91-.69-2.86-1.03,5.96-2.43,11.88-.08,17.82.17,12.69,1.9,25.25,4.67,38.05,5.85,3.14,1.12,6.36,1.94,9.7,2.21,2.96,1.37,6.06,2.28,9.27,2.86,4.99,2.02,9.98,4.05,14.98,6.07,1.97,1.11,3.94,2.21,5.9,3.32,5.36,3.78,10.61,7.76,18.38,9.51-3.83-8.24-9.2-13.86-15.23-18.98-.65-.66-1.29-1.33-1.94-1.99-3.37-3.29-6.74-6.59-10.12-9.88,0,0-.05-.05-.05-.05-8.08-6.14-14.64-14.06-23.12-19.72-1.49-1-3.08-1.87-4.62-2.79-1.33-.95-2.65-1.91-3.98-2.86-1.73-1.44-3.47-2.88-5.2-4.33-1.6-.89-3.2-1.78-4.8-2.67-3.48-2.04-5.27-6.73-10.19-6.49-.21-.26-.47-.45-.79-.55-6.41-3.86-12.82-7.71-19.23-11.57l-.03-.02c-.44-.79-1.19-.79-1.95-.77-.66-.1-1.32-.21-1.98-.31-2.33-1.01-4.66-2.01-6.99-3.02-2.19-1.25-4.51-2.17-7.01-2.54-1.34-.43-2.67-.85-4.01-1.28-2.67-.89-5.33-1.79-8-2.68-.67-.14-1.34-.29-2-.43-12.72-3.85-25.7-5.57-38.99-4.78-1.54.13-4.04-.76-4.28,1.01-.3,2.15,2.29,2.68,4.08,3.35,3.64,1.4,7.31,2.68,11.19,3.25,1,.65,2,1.3,3.01,1.95,1.99.3,3.99.59,5.98.89,3.51,1.64,6.83,3.9,11.01,3.32h.01c.84.88,1.53,1.97,2.99,1.83,1.99.42,3.98.83,5.97,1.25.8,1.27,2.31.68,3.36,1.29,3.47,1.69,6.94,3.38,10.41,5.07.7,1.77,4.53,1.03,3.41,4.25-4.38.59-8.77,1.18-13.15,1.77-4.32.82-8.96.06-12.94,2.57-7.87.98-15.49,3.01-23.04,5.35-1.67.57-3.34,1.15-5.01,1.72-1.33.39-2.66.78-3.99,1.17-7.71,2.39-15.14,5.41-22.04,9.65-1.55.25-2.87.93-3.99,2.02-13.39,6.33-24.24,15.76-33.81,26.76.24.35.47.71.71,1.06,2.95-1.71,5.82-3.55,8.85-5.1,5.11-2.61,10.32-5.04,15.49-7.55,3.59-.83,7.18-1.66,10.77-2.49l2.01-1c5.45.36,10.63-1.59,16.04-1.84,9.93-.47,19.49,1.33,28.96,4.02,1,.33,2,.67,3.01,1,3.29,1.48,6.58,2.97,9.87,4.45,7.68,4.64,15.32,9.34,21.66,15.78.92.93,3.49,1.6,1.45,3.8-9.08-.2-18.02,1.19-26.99,2.37-11.46,1.51-22.24,5.02-32.07,11.2-1.52.96-3.19,1.8-4.05,3.55-.61.4-1.22.8-1.83,1.2-7.15,5.96-10.8,13.77-12.05,22.84-.98-.38-1.95-.76-2.93-1.15-2.33-3.01-5.77-4.39-8.96-6.14-.99-.6-1.98-1.19-2.97-1.79-3.31-4.11-8.32-5.08-12.83-6.97-7.51-3.14-15.06-6.17-23.31-6.82-11.58-2.05-22.96-1.35-34.13,2.39-1.04.45-2.09.89-3.13,1.34-2.2.13-3.9,1.44-5.72,2.45-4,1.63-8.01,3.27-12.01,4.9-6.63,1.02-13.19,2.68-19.99,1.95l-15.53-4.57c-.28-.06-.55-.12-.83-.18.12.2.24.39.35.58,3.09,5.55,8.42,8.32,13.76,11.06,1.61.83,3.48,1.23,4.64,2.79-20.24.04-40.2-1.79-59.43-8.63-.6-.21-1.31-.15-1.97-.21-.67-.22-1.33-.45-2-.67-2.66-1.12-5.32-2.24-7.99-3.36-.99-1.31-2.65-.71-3.88-1.33-2.75-1.44-4.95-3.82-8.04-4.69-2.95-2.77-6.72-3.54-10.49-4.26-1.69-.32-2.96.13-2.51,2.29-.18,1.94,4.74,8.59,2.71,10.33-1.98,1.7-3.75-.66-5.68-1.34-3.54-1.25-7.74.04-11.13-2.34-3.05-2.14-6.67-1.87-10.18-2.48,8.83,8.77,19.76,13.65,31.2,17.62,5.53,2.17,11.07,4.26,16.96,5.26h0c.68.24,1.35.49,2.03.73.65.1,1.31.19,1.96.29,2.87,1.34,5.9,1.94,9.04,2.13h0c7.86,2.19,15.87,3.56,23.99,4.3,2.67.33,5.34.66,8.02.99,1.07.27,2.14.53,3.22.8-11.18,1.56-22.21.37-33.23-1.09-2.33-.38-4.67-.75-7-1.13-12.22-3-24.2-6.72-35.93-11.29-.68-.28-1.37-.55-2.05-.83-1.6-.78-3.2-1.56-4.8-2.34-1.08-.49-2.15-.98-3.23-1.47-.2-.19-.44-.29-.73-.28-45.49-31.9-75.49-63.9-83.49-72.9,4,24,74.77,78.85,82,82,0,0,42,20,82,19,11-1,56-13,56-13,0,0,28.51-.79,29-1,2.97.45-6.53,6.11-3.66,5.85-1.91,3.03-5.65,3.25-8.17,5.33-4.32,1.29-8.64,2.58-12.96,3.87-8.34,1.08-16.72,2.07-24.67,5.01-1.75.65-4.24,1.3-3.8,3.85.38,2.21,2.6,2.81,4.61,3.19,6.25,1.18,12.55,1.02,18.86.79h3.99c4.94-1.55,10.27-1.5,15.03-3.76,4.24-.66,8.47-1.41,12.73-1.91,1.41-.17,3.52-1.06,3.8,1.69-5.55,6.66-13.63,8.79-21.19,11.84-18.65,3.37-37.53,3.1-56.36,3.55-.67-.03-1.34-.06-2.01-.09-1,0-1.99-.02-2.99-.03-3-.29-6.01-.58-9.01-.88-9.77-1.45-19.51-3.09-28.98-5.99-.67-.09-1.34-.18-2.01-.27-5.67-2.28-11.33-4.56-17-6.84-3.42-.39-5.64-3.48-9.01-4-2.47.05-3.84-2.75-6.4-2.48-2.26-1.79-4.87-2.86-7.6-3.65-1.93-1.13-3.86-2.26-5.79-3.39-3.34-2.05-6.69-4.1-10.03-6.16-1.34-.85-2.69-1.7-4.03-2.56-2.83-2.33-5.74-4.55-9.02-6.22-1.29-.93-2.58-1.87-3.87-2.8h0c-2.02-2.15-4.41-3.8-6.95-5.25,0,0,0,.01,0,.02-2.52-2.02-5.04-4.05-7.57-6.07-1.15-.9-2.29-1.8-3.44-2.7h0c-1.81-2.03-3.77-3.88-6.14-5.26l-1.95-1.7c-1.78-2.21-3.87-4.07-6.19-5.68-1.61-1.44-3.23-2.87-4.84-4.31-1.76-2.26-3.87-4.14-6.2-5.79-.61-.51-1.21-1.02-1.82-1.53-1.49-1.75-2.95-3.51-4.46-5.23-.66-.75-1.4-1.49-2.51-.75-.74.5-1.22,1.15-.69,2.06,3.33,5.76,3.58,12.79,7.48,18.32l.24.98c.05,1.55.77,2.85,1.57,4.11.35,1.81.79,3.58,2.21,4.9.68,2.46,1.29,4.96,2.88,7.05.01.34.12.65.32.93.37,1.51.86,2.96,1.99,4.1h0c1.2,2.67,1.25,5.9,3.83,7.91.78,1.72,1.56,3.43,2.34,5.15.69,1.61,1.38,3.23,2.07,4.84-.3,1.45.62,2.26,1.59,3.04.81,1.04,1.62,2.08,2.43,3.12h0c.39.68.78,1.36,1.18,2.04.97,1.65,1.94,3.3,2.91,4.95l3.38,4.91c.87,1.37,1.74,2.74,2.6,4.1.73,1,1.47,1.99,2.2,2.99,1.19,1.61,2.37,3.22,3.56,4.84,1.57-.34,2.6-.21,3.29.23-.68-.44-1.71-.57-3.29-.23,1.16,2.11,2.8,3.79,4.64,5.31.78.9,1.57,1.8,2.35,2.7,1.52,2.03,3.05,4.06,4.57,6.09.3,1.66,1.61,3.06,1.29,4.87-.02,0-.04,0-.06-.02-.04-.01-.07-.02-.12-.03h0s.02.08.02.12h0c.06.3.12.6.18.9-.06-.3-.12-.6-.18-.9-3.56-.63-6.12-3.06-8.69-5.25-7.72-6.56-24.48-20.82-26.38-23.1-1.52-1.82,8.81,18.84,14.18,24.65,1.29,1.4,3.72,3.55,2.47,4.88-2.04,2.17-9.75-4.25-12-5.74,4.25,13.49,28.25,25.49,28.25,25.49,2.75,1.49,11.86-5.13,14.29-7.94.3-.36.61-.71.91-1.07,3.97-2.55,7.94-5.09,11.91-7.64.41-.34.81-.68,1.22-1.02,3.85-1.44,7.71-2.84,11.14-5.17,5.28-1.29,10.55-2.66,16.07-2,3.14,2.35,4.84,5.68,6.2,9.32,4.87-1.53,8.47-4.93,12.48-7.65,2-1,4-2.01,5.99-3.01,3.78-.08,6.49-2.99,10-3.81,2.73-.24,5.46-.44,7.98-1.66,1.48,1,2.78.45,4.03-.48,7.39-.61,14.64,1.23,21.99,1.24,2.88.21,4.86,3.2,8.01,2.55.99.14,1.98.29,2.97.43,1.34.54,2.69,1.07,4.03,1.6,2.58.93,5.15,1.86,7.73,2.8l3.26,1.37c1,.38,2,.77,3,1.16,2.98,2.19,6.49,3.11,9.98,4.07,1.58,3.05,4.79,1.92,7.17,2.47,6.85,1.59,13.75,3.87,20.94,1.72,3.97-.47,7.94-.94,11.91-1.41,3,0,6,0,9,.01l.99,1.15-18.16,4.39-2.83.73c-1.71-.05-3.2.6-4.62,1.47-3.94,3.52-4.2,5.68-.65,9.52,3.61,3.9,7.51,7.53,11.21,11.34,8.74,9.01,17.29,18.19,26.17,27.06,10.7,10.69,21.65,21.12,32.5,31.66.73,1.45,1.45,2.9,2.18,4.34-4.29-1.56-7.76-4.37-11-7.43-1.97-1.86-3.45-1.97-5.28.15-2.04,2.36-4.33,4.5-6.52,6.74-1.51.91-2.68,2.16-3.58,3.67-3.08,3.03-.31,5.61.63,8.33-.75.83,2.09,3.69-1.62,2.86-13.3-13.13-26.81-26.05-40.5-40.73,5.23.79,7.94,3.17,10.56,5.59,5.01,4.62,9.88,9.41,14.92,13.99,3.06,2.78,6.37,5.26,12.15,5.92-3.54-4.83-6.05-9.2-9.46-12.7-5.78-5.92-11.7-11.7-17.21-17.89-1.93-2.17-2.08-4.78-2.02-7.5.06-2.8.64-4.74,4.15-4.78,1.72-.02.87-1.77.55-2.79-2.19-6.91-7.83-10.97-12.88-15.51-.82-.73-1.89-.44-2.77.2-1.21.88-2.67,1.57-3.54,2.71-2.84,3.71-5.97,5.32-10.23,2.27-1.31-1-2.63-2-3.94-3.01-7.39-8.56-15.46-16.44-24.08-23.74-3.36-2.85-5.66.42-8.19,1.95-2.32,1.32-3.71.7-4.77-1.81-1.45-3.42-3.12-6.78-5.92-9.39-.71-1.77-1.09-3.79-3.35-4.36h0s-.25-.15-.25-.15c-.54-.34-1.08-.69-1.63-1.03-.33-.38-.66-.76-.99-1.14h0c-1.89-1.17-3.57-2.81-6.03-2.75-3.6-.99-7.25-1.54-10.99-1.04-1.09.08-2.18.17-3.27.25h0c-.29-.06-.54.02-.76.22-2.82.24-5.61.59-7.97,2.36h0c-.33.07-.66.14-1,.21-3.36.92-6.51,2.23-9.06,4.7h0c-6.28,2.43-10.21,7.28-13.35,12.94-6.7,11.53-6.02,23.74-3.28,36.13h0c1.68,5.88,3.33,11.78,6.57,17.05,1.92,7.5,4.77,14.86,3.18,22.85-.16.79,0,1.64.82,2.14,2.08.64,3.02,1.34,3.25,2.07-.23-.73-1.17-1.43-3.25-2.07.09,1.99.19,3.97.28,5.96-.4.97-.79,1.94-1.19,2.92-2.53-.09-3.34-1.96-4.59-3.79-1.15-1.7-2.67-4.07-5.37-3.42-3.01.72-3.98,3.05-4.09,6.02-.12,3.51.18,6.92,1.24,10.27,1.4,7.3,1.82,14.69,2.05,22.1-1.38.94-1.36,1.87.01,2.79-.5,3.11.62,6.06.93,9.09-.14,1.14-.58,2.62.48,3.22,1.2.67,2.09-.7,2.8-1.52,5.89-6.74,9.26-14.98,13.45-22.73,1.18-.09,2.2.29,3.11,1.01.02,4.54.08,9.07,4.68,11.8,1.89,1.46,3.75,2.97,6.21,3.41,2.47,1.57,5.24,2.07,8.09,2.25,1.95.73,3.98.64,6,.53.99-1.02,1.98-1.54,2.98-1.55-1,.01-1.99.53-2.98,1.55,2-.03,4-.05,6-.08,1.42.13,2.8.02,4.01-.86,2.38-.23,4.41-1.19,6.14-2.82,0,0,0,0,0,0,6.54-3.6,10.19-9.47,12.73-16.21,1.47-2.5,2.5-5.18,3.01-8.04,1.75-2.74,5.08-3.39,7.31-5.51,2.95-1.81,5.89-3.62,8.84-5.43,1.9-.59,3.54-1.62,4.98-2.99.65-.38,1.3-.75,1.96-1.13,2.22-.95,4.31-2.09,6.09-3.76.31-.15.62-.31.93-.46,1.26-.41,2.44-1.58,3.86-.38-.56,9.22-.53,18.44-.02,27.67.05,3.7-1.62,6.37-4.25,9-6.32,6.33-12.14,13.13-16.47,21.06l-2.39,3.8c-2.82,4.12-5.32,8.41-6.97,13.15-.3.65-.59,1.29-.89,1.93-1.95,3.09-3.26,6.44-4.21,9.95-2.04,4.55-3.82,9.18-4.63,14.13-1.13,1.84-1.47,3.92-1.79,6-.15.85-.29,1.71-.44,2.56-.8,1.02-.83,2.21-.74,3.43-1.01,1.87-1.17,3.9-1.12,5.98-.24,1.01-.48,2.02-.72,3.03-3.56,22.07-3.42,44.14.18,66.19.69,4,1.38,8,2.07,12-.02.32.1.59.35.8.05,2.81.82,5.48,1.64,8.14.24.62.48,1.24.72,1.85,1.67,3.97,5.06,5.52,8.97,6.02,8.36,1.08,16.3-.52,23.88-4.13l2.03-.81c3.68.32,6.47-1.96,9.47-3.44,1.8-.89,3.51-1.69,5.51-1.8,2.67.19,5.34.39,7.99-.21,1.33.07,2.67.14,4,.21,1.69,1.4,3.36,1.46,4.99-.1,5.85-1.06,12.13-.33,17.05-5.03,1.56-1.49,2.48-2.76,2.73-4.85.29-2.43,1.45-4.37,4.26-4.67,6.8.1,13.6.15,20.4.31,2.74.06,3.9-1.05,3.74-3.84-.45-7.62.79-15.13,1.61-22.67.62-5.7,3.35-9.61,9.17-11.62,7.63-2.63,15.75-3.67,23.04-7.32,2.42-.27,2.65-1.37,1.18-3.12-1.23-1.97-2.45-3.93-3.68-5.9-1.35-2.08-2.69-4.16-4.04-6.24-.35-2.68-.7-5.36-1.04-8.04.47-.15,1.21-.16,1.36-.46,4.22-8.63,13.19-11.17,20.32-16.12,3.34-2.32,3.83-.51,4.65,1.9,1.5,6.22,1.33,12.55,1.23,18.88-2.32,4.23-1.22,9.66-5.02,13.45-1.52,1.52.63,2.51,1.52,3.51,1.18,1.33,2.82,1.61,3.82.14,1.7-2.51,5.16-2.43,6.64-4.24,3.18-3.9,5.6-8.49,5.82-13.82,2.44-5.44,2.24-11.23,2.31-16.99.85-1.26-.14-3.4,1.94-4.08,1.52,1.26,2.98,2.61,4.94,3.19,3.01,3.97,6.01,7.94,9.02,11.9,4.91,11.7,6.16,23.79,4.33,36.33-.57,3.91-.44,7.93-.4,11.9.01,1.28-.79,3.38,1.27,3.69,1.54.23,2.65-1.25,3.3-2.63,1.69-3.59,3.12-7.28,3.61-11.26,1.3-1.46,4.52-2.46,1.23-5.04.16-1.04.32-2.07.47-3.11.93-.32,1.06-1.06.99-1.9-1.38-7.28-.87-14.65-.94-21.99.14-.82.17-1.59-.72-2.05-.46-3-.04-6.11-1.22-9.01,1.11-1.06.1-1.25-.63-1.55.81-5.53-2.17-10.26-3.27-15.39.01-1.98.03-3.96.04-5.94l.48-.09.49.02c3,4.28,6,8.55,9.01,12.83.65.73,1.31,1.45,1.96,2.18,1.1,6.29,5.85,10.33,9.35,15.14,1.58,1.94,3.17,3.88,4.75,5.82.6,1.37,1.69,2.27,2.91,3.05,2.5,5.3,8.06,7.2,12.06,10.83.63.39,1.26.79,1.89,1.18,1.94,2.22,4.53,3.47,7.07,4.8.2.2.44.31.73.31,2.84,2.06,5.64,4.17,9.27,4.65.33.07.67.13,1,.2,1.15,2.71,3.15,1.55,5,1.09,4.29.78,8.62.5,12.91.3,6.88-.32,13.49.93,20.06,2.68,3.59,3.62,7.97,6.1,12.37,8.53,2.08,1.15,4.33,1.05,5.88-.79,1.64-1.95-1-2.79-1.71-3.94-4.06-6.61-9.57-11.96-15.53-16.85-.59-1.32-1.69-1.82-3.05-1.87-1.27-1.17-2.54-2.33-3.81-3.5l-3.95-3.94c-1.36-2.5-2.37-5.28-5.24-6.58l-.05-.08c-2.29-3.16-1.17-8.32-5.92-10.04-.63-2.18-1.54-4.23-2.99-6-.65-1.34-1.3-2.68-1.96-4.01.61-2.73,2.44-1.04,3.51-.74,2.54.73,4.95,1.86,7.42,2.82.64,1.21,1.52,2.04,3,1.94,1.68,1.33,3.37,2.65,5.05,3.98,1.32,1.02,2.64,2.03,3.96,3.05.1.32.2.64.31.96-2.54,5,2.62,2.34,3.71,3.73,3.03,1.74,4.14,5.3,6.9,7.3,1.17,2.74,3.18,4.89,5.01,7.18.01.3.12.56.33.78,2.59,4.33,5.17,8.66,7.76,12.99.46,1,.91,2,1.37,3,2.84,6.92,5.51,7.75,7.44,15.02.39,1.47,6.19-6.77,5.59-10.14-.15-.96-.3-1.91-.45-2.87.77-1.57,1.49-.9,2.05.12,1.43,2.61,2.79,5.25,4.17,7.88.45,1.4.9,2.8,1.35,4.2.02.31.14.57.37.78.4,1.68,4.92,16.04,6.92,38.04,7-9,8-67,8-67,0,0-28.18-87.63-28.94-89.42-.25-.59-.39-1.37.74-.95.45.16.83.5,1.24.75.25.26.5.51.75.77,14.21,8.85,32.21,73.85,32.21,77.85,1.88-3.95-5.22-79.07-5.54-80.63-1.75-11.17-4.99-21.92-8.96-32.48l-2.58-7.88c.49-1.35-.54-2.09-1.19-2.98-.71-2.01-.41-4.47-2.62-5.8-1.45-3.07-2.9-6.14-4.35-9.21-2.85-8.09-8.9-14.09-13.6-20.98-.22-.33-.43-.66-.65-.99-.15-1.82.65-2.25,2.34-1.78,3.09.85,6.22,1.58,9.33,2.35,1.66.47,3.31.93,4.97,1.4.79.97,1.54,1.99,3.02,1.81,4.42.56,8.83,1.13,13.25,1.69,2.22.75,4.49.89,6.81.65,2.35.2,4.7.41,7.06.61,1.02,1.12,40.43-6.87,38.71-7.79-8.46-4.55-39-13-43.79-22.06Zm-556.3-142.8c-.02.93.18,1.63.52,2.17-.35-.54-.54-1.24-.52-2.17Zm262.78,213.75c-.41,3.04-2.65,5.27-3.57,8.09-1.51,1.71-2.56,3.69-3.34,5.81-2.11,3.13-3.76,6.48-4.88,10.09-1.99,3.4-3.28,7.06-4.13,10.89-.58,1.72-1.12,3.46-1.76,5.15-.57,1.49-.74,3.34-2.99,3.42-2.35.08-3.16-1.39-3.52-3.36,1.08-3.63,2.16-7.25,3.24-10.88l1.15-3.12c.46-1.3.92-2.59,1.38-3.89,1.01-1.19,1.71-2.53,1.9-4.1.42-.84.85-1.69,1.27-2.53.92-1.82,1.84-3.65,2.76-5.47,1.1-1.11,1.82-2.43,2.21-3.94,2.48-2.65,3.15-6.59,6.24-8.78,1.06-.75,2.39-1.65,3.65-.96,1.48.81.57,2.34.4,3.57Zm34.6,37.91c-1.7-.87-3.39-1.74-5.09-2.62-.13-.21-.32-.31-.56-.31-1.44-1.07-2.87-2.15-4.31-3.22l-.92-.72c-.97-1.1-1.95-2.2-2.92-3.3-6.03-6.79-6.33-9.55-1.86-17.48,2.22-2.63,4.45-5.27,6.67-7.9,1.37-1.39,2.73-2.77,4.1-4.16,2.26-2.07,4.51-4.14,6.77-6.21,2.3-1.97,4.59-3.94,6.89-5.9,1.89-.37,3.46.4,4.99,1.37,5.43,5.6,11.27,10.79,15.6,17.42,2.55,3.9,2.92,6.7-1.02,10.17-6.11,5.37-11.66,11.38-17.37,17.2-2.37,2.41-5,4.35-8.11,5.64-.95,0-1.9.02-2.85.03Zm28.56,34.07c-2.35,2.5-5.19,4.54-7.8,6.79-3.74,1.85-7.68,3-11.84,3.36-2.78-1.1-4.43-3.16-5.15-6.01-.03-5.55,1.97-10.68,3.35-15.93.59-1.35,1.17-2.71,1.76-4.06.72-1.56,1.43-3.12,2.15-4.68,1.21-2.11,2.42-4.21,3.64-6.32.76-1.3,1.53-2.61,2.29-3.91,7.96-11.22,16.95-21.55,26.82-31.12.63-.51,1.25-1.03,1.88-1.54,2.08-1.2,4.17-2.41,6.25-3.61,1.66.1,3.32.19,4.97.29,1.68,1.64,3.36,3.27,5.04,4.91.42,1.35.85,2.7,1.27,4.05-.04.3.02.58.19.83.2,4.11-.91,8.04-1.74,12-3.89,8.59-9.04,16.42-14.4,24.13-.26.19-.41.44-.46.75-6.06,6.71-12.03,13.51-18.22,20.1Zm49.21-28.92c-6.33,10.66-15.21,19.34-22.7,29.1-.5.61-1.01,1.22-1.51,1.83-2.62,2.73-5.31,5.4-7.84,8.21-3.45,3.83-7.1,7.37-11.85,9.57-2.96,1.37-3.98.45-3.09-2.67.4-.99.8-1.98,1.2-2.98,8.02-12.34,18.21-22.85,28.28-33.46.88-.89,1.76-1.78,2.63-2.68,1.34-.6,2.35-1.57,3.11-2.81,1.69-1.33,3.38-2.66,5.06-3.99.99-.6,1.98-1.19,2.97-1.79,1.62-.23,3-1.52,4.77-1.05-.34.9-.68,1.8-1.03,2.7Z"/><path class="d" d="m705.03,275.84c-2.02-.55-3.49-.38-4.5.33,1.01-.71,2.48-.88,4.5-.33Z"/><path class="d" d="m664.06,178.78c.07.17.13.35.19.53-.06-.18-.12-.35-.19-.53-.23-.57-.4-1.14-.53-1.71.13.56.3,1.13.53,1.71Z"/><path class="d" d="m713.54,265.67c-.37-.98-1.26-1.55-2.5-1.87,1.24.31,2.14.89,2.5,1.87Z"/><path class="d" d="m723.68,287.34c-2.48-.12-3.85.03-4.73.81.87-.78,2.24-.93,4.73-.81Z"/><path class="d" d="m745.44,271.33c-.6-.02-1.12.02-1.58.14.46-.11.98-.16,1.58-.14Z"/><path class="d" d="m783.86,248.41c-.2.3-.39.45-.56.49.17-.04.35-.19.56-.49Z"/><path class="d" d="m830.59,233.99c.22-.15.44-.31.66-.46.01-.03.03-.05.04-.08-.01.03-.03.05-.04.08h0s0,0,0,0c-.22.15-.44.31-.66.46Z"/><path class="d" d="m994.76,21.01c.1.04.21.08.31.12-.11-.04-.22-.07-.32-.11,0,0,.01-.01.01-.01Z"/><path class="d" d="m295.22,566.57c-.46-.72-.82-1.38-1.06-1.98.24.59.6,1.25,1.06,1.98Z"/><path class="d" d="m433.12,385c.16-.84-.1-1.55-.77-2.12.67.57.93,1.28.77,2.12Z"/><path class="d" d="m442.02,406.49c.01.39,0,.78-.02,1.16.02-.39.03-.77.02-1.16Z"/><path class="d" d="m437.28,364.34s0,.08,0,.12h0s0-.08,0-.12Z"/><path class="d" d="m439.95,372.03c-.72-.33-1.28-.78-1.68-1.35.4.57.97,1.02,1.68,1.35Z"/><path class="d" d="m443.28,373.68s-.02-.02-.03-.03c0,0,.02.02.03.03Z"/><path class="d" d="m444.31,374.88c-.13-.17-.26-.33-.39-.49.13.16.26.32.39.49Z"/><path class="d" d="m444.97,375.81c.18.26.36.53.54.8-.18-.27-.36-.54-.54-.8Z"/><path class="d" d="m535.98,434.37c1.99,1.86,4.48,2.71,7.24,2.47-2.75.24-5.25-.62-7.24-2.47Z"/><path class="d" d="m533.22,430.4c.45.99.98,1.88,1.57,2.65-.59-.77-1.12-1.65-1.57-2.65Z"/><path class="d" d="m493.21,407.14c-.11.92-.29,1.96.03,2.13,2.92,1.65,4.82,4.56,7.02,7.03-2.21-2.47-4.11-5.38-7.02-7.03-.31-.18-.14-1.21-.03-2.13Z"/><path class="d" d="m481.49,404.82s.03,0,.04,0c-.01,0-.03,0-.04,0Z"/><path class="d" d="m471.96,395.46c.38.48.86.93,1.47,1.33.09.06.18.13.27.2-.09-.07-.18-.14-.27-.2-.61-.41-1.1-.85-1.47-1.33Z"/><path class="d" d="m459.97,385.68c.14.23.28.45.44.66.24.33.47.63.71.9-.24-.27-.48-.57-.71-.9-.16-.22-.3-.44-.44-.66Z"/><path class="d" d="m309.9,651.32c-.1,0-.21,0-.31,0,.1,0,.21,0,.31,0Z"/><path class="d" d="m310.7,651.24c-.12.02-.26.03-.39.04.13-.01.27-.02.39-.04Z"/><path class="d" d="m311.43,651.09c-.1.03-.22.04-.32.07.11-.02.22-.04.32-.07Z"/><path class="d" d="m312.08,650.88c-.08.03-.17.05-.25.08.08-.03.17-.05.25-.08Z"/><path class="d" d="m313.17,650.28c-.05.04-.11.07-.17.11.05-.04.11-.07.17-.11Z"/><path class="d" d="m315.11,644.28h0s.02,0,.03,0c0,0-.02,0-.03,0,0,0,0,.01,0,.02,0,0,0-.01,0-.02h0Z"/><path class="d" d="m340.17,614.82c.23-.37.51-.68.83-.82.9-.4,1.64-.87,2.27-1.39-.63.51-1.37.98-2.27,1.39-.32.14-.6.45-.83.82Z"/><path class="d" d="m323.22,639.45c-.04.33-.09.64-.15.92.06-.29.11-.59.15-.92.02-.17.08-.37.17-.57-.09.2-.15.4-.17.57Z"/><path class="d" d="m321.81,642.93c.09-.09.17-.2.25-.3-.08.1-.16.21-.25.3Z"/><path class="d" d="m322.84,641.17c.08-.24.15-.5.21-.77-.06.28-.13.53-.21.77Z"/><path class="d" d="m322.21,642.44c.08-.12.16-.26.23-.39-.07.13-.15.27-.23.39Z"/><path class="d" d="m317.17,644.34c.13,0,.25,0,.38,0-.13,0-.25,0-.38,0Z"/><path class="d" d="m321.36,643.33c.09-.07.18-.16.27-.24-.09.08-.17.17-.27.24Z"/><path class="d" d="m320.86,643.65c.1-.05.19-.12.29-.18-.1.06-.19.13-.29.18Z"/><path class="d" d="m320.32,643.89c.11-.04.21-.09.31-.14-.1.05-.21.1-.31.14Z"/><path class="d" d="m319.14,644.21c.12-.02.24-.05.35-.07-.12.03-.23.05-.35.07Z"/><path class="d" d="m318.5,644.29c.13-.01.25-.03.37-.05-.12.02-.25.04-.37.05Z"/><path class="d" d="m317.84,644.33c.13,0,.25-.02.38-.02-.13,0-.25.02-.38.02Z"/><path class="d" d="m316.16,644.32c-.13,0-.26,0-.39-.01.13,0,.26,0,.39.01Z"/><path class="d" d="m316.86,644.34c-.13,0-.26,0-.39,0,.13,0,.26,0,.39,0Z"/><path class="d" d="m315.13,645.09s0-.02,0-.03c0,0,0,.02,0,.03Z"/><path class="d" d="m315.11,645.81s0,.02,0,.03c0-.01,0-.02,0-.03Z"/><path class="d" d="m315.04,646.57s0-.03,0-.04c0,.01,0,.03,0,.04Z"/><path class="d" d="m314.93,647.26s0-.04.01-.06c0,.02,0,.04-.01.06Z"/><path class="d" d="m314.76,647.9s.02-.05.03-.07c0,.02-.02.05-.03.07Z"/><path class="d" d="m314.53,648.51s.03-.06.04-.09c-.01.03-.03.06-.04.09Z"/><path class="d" d="m314.25,649.06s.04-.06.06-.1c-.02.04-.04.07-.06.1Z"/><path class="d" d="m313.9,649.55s.06-.07.09-.1c-.03.04-.06.07-.09.1Z"/><path class="d" d="m313.49,650s.08-.07.12-.11c-.04.04-.08.07-.12.11Z"/><path class="d" d="m303.4,660.02c-.26.08-.54.15-.83.21.29-.06.57-.13.83-.21Z"/><path class="d" d="m261.54,628.02c-.29.05-.58.1-.87.13.29-.04.58-.08.87-.13Z"/><path class="d" d="m264.71,612.32c.98-.42,1.67-.94,1.45-1.8.22.86-.46,1.38-1.45,1.8Z"/><path class="d" d="m274.32,598.7c.26-1.09.48-2.18.64-3.27-.16,1.09-.38,2.18-.64,3.27-.34,1.44-.84,2.67-1.56,3.62.72-.95,1.22-2.18,1.56-3.62Z"/><path class="d" d="m271.45,603.55c.2-.13.39-.27.56-.43-.18.16-.36.3-.56.43Z"/><path class="d" d="m272.11,603.05s0,0,.01-.01c0,0,0,0-.01.01Z"/><path class="d" d="m281.34,578.21c-.45.4-.99.76-1.6,1.07.62-.31,1.15-.67,1.6-1.07Z"/><path class="d" d="m280.2,618.98c-.26.25-.45.48-.6.72.15-.24.34-.48.6-.72Z"/><path class="d" d="m297.68,551.92s-.03.03-.04.05c.02-.02.03-.03.04-.05Z"/><path class="d" d="m289.07,591.26c0,.3.05.62.19.96-.14-.34-.2-.66-.19-.96Z"/><path class="d" d="m289.26,590.44s.03-.08.05-.11c-.02.04-.03.07-.05.11Z"/><path class="d" d="m289.08,591.16c.01-.18.05-.36.11-.53-.06.17-.09.35-.11.53Z"/><path class="d" d="m281.65,617.9c-.58.37-1.06.72-1.43,1.06.36-.34.85-.69,1.43-1.06Z"/><path class="d" d="m270.7,603.97s0,0,0,0c0,0,0,0,0,0Z"/><path class="d" d="m276.22,745.31c-.9-.61-1.68-1.1-2.36-1.46.68.36,1.46.85,2.36,1.46Z"/><path class="d" d="m247.61,793.22c.24-.39.51-.77.82-1.11-.3.35-.57.72-.82,1.11Z"/><path class="d" d="m246.79,794.99c-.34,1.03-.5,2.15-.44,3.3-.06-1.15.1-2.27.44-3.3Z"/><path class="d" d="m239.51,809.17c.1-.13.18-.27.29-.4-.11.13-.19.27-.29.4Z"/><path class="d" d="m238.2,812.29c.04-.2.07-.41.12-.61-.05.19-.08.4-.12.61Z"/><path class="d" d="m223.02,850.68c-.05.31-.07.63-.07.97,0-.34.02-.66.07-.97Z"/><path class="d" d="m223.71,848.76c.09-.14.19-.28.29-.42-.1.14-.21.27-.29.42Z"/><path class="d" d="m211.44,878.89c1.13-1.53,2.28-3.05,2.44-4.86-.16,1.81-1.31,3.34-2.44,4.86Z"/><path class="d" d="m206.17,755.73c.37-.31.77-.62,1.26-.91.5-.29.85-.57,1.08-.84-.23.26-.58.54-1.08.84-.48.29-.89.59-1.26.91Z"/><path class="d" d="m197.77,906.38c.03-3.37,1.08-6.04,3.16-8.03-2.08,1.99-3.13,4.66-3.16,8.03Z"/><path class="d" d="m187.24,796.58c0,.18,0,.37,0,.56,0-.19,0-.37,0-.56,0-.27.01-.55,0-.82,0,.27,0,.54,0,.82Z"/><path class="d" d="m187.23,798.26c0-.38,0-.75,0-1.12,0,.37,0,.75,0,1.12Z"/><path class="d" d="m187.23,798.83c0-.19,0-.38,0-.57,0,.19,0,.38,0,.57Z"/><path class="d" d="m187.13,800.49c-.04.31-.11.61-.19.9.08-.29.15-.59.19-.9.05-.36.08-.73.09-1.1-.01.37-.04.74-.09,1.1Z"/><path class="d" d="m184.11,804.23c-3.23,1.12-4.4,3.27-4.73,6.05.33-2.78,1.51-4.93,4.73-6.05,1.16-.4,1.89-1.02,2.35-1.76-.46.74-1.19,1.35-2.35,1.76Z"/><path class="d" d="m180.27,932.88s0-.02.01-.02c0,0,0,.02-.01.02Z"/><path class="d" d="m175.13,820.52c.68-.59,1.49-1.11,2.48-1.54.4-.17.7-.42.94-.72-.24.3-.54.54-.94.72-.98.43-1.8.95-2.48,1.54Z"/><path class="d" d="m168.26,834.53c-.2.18-.42.34-.65.48.23-.14.45-.3.65-.48,1.03-.93,1.78-2.35,2.36-4.17,1.03-3.21,1.49-6.71,3.87-9.24-2.38,2.52-2.84,6.03-3.87,9.24-.58,1.81-1.33,3.24-2.36,4.17Z"/><path class="d" d="m155.95,855.13c.46-.93,1.06-1.8,1.76-2.51-.7.71-1.3,1.59-1.76,2.51Z"/><path class="d" d="m105.8,919.52c-.08-.08-.17-.15-.26-.23.09.07.18.15.26.23Z"/><path class="d" d="m104.46,918.67s-.03,0-.04-.01c.01,0,.03,0,.04.01Z"/><path class="d" d="m104.98,918.9c-.06-.03-.12-.05-.18-.08.06.03.12.05.18.08Z"/><path class="d" d="m105.42,919.19c-.07-.05-.14-.09-.22-.14.07.05.15.09.22.14Z"/><path class="d" d="m106.12,919.89c-.08-.11-.18-.22-.28-.32.1.1.19.21.28.32Z"/><path class="d" d="m141.31,879.01s.04-.03.05-.05c-.02.02-.03.03-.05.05Z"/><path class="d" d="m119.84,893c4.52.9,8.3-.86,11.87-5.08.4-.48.82-.94,1.26-1.38-.43.45-.85.91-1.26,1.38-3.57,4.22-7.35,5.98-11.87,5.08Z"/><path class="d" d="m108.01,925.87c-.25-.15-.5-.29-.75-.44h0c.25.15.5.29.75.44Z"/><path class="d" d="m106.39,920.3s-.03-.04-.04-.07c.01.02.03.04.04.07Z"/><path class="d" d="m106.61,920.74s-.02-.05-.03-.07c.01.02.02.04.03.07Z"/><path class="d" d="m106.78,921.21s-.02-.05-.03-.08c0,.03.02.05.03.08Z"/><path class="d" d="m106.92,921.7s0-.02,0-.03c0,.01,0,.02,0,.03Z"/><path class="d" d="m107.16,923.26s0-.04,0-.06c0,.02,0,.04,0,.06Z"/><path class="d" d="m107.19,923.8s0-.04,0-.06c0,.02,0,.04,0,.06Z"/><path class="d" d="m107.22,924.35s0-.09,0-.14c0,.05,0,.09,0,.14Z"/><path class="d" d="m51.31,892.38c-.76.05-1.6-.15-2.53-.61-1.4-.69-2.34-1.56-2.66-2.7.31,1.14,1.26,2,2.66,2.7.93.46,1.77.67,2.53.61Z"/><path class="d" d="m64.26,894.08c-.02.16-.04.33-.06.49.02-.17.05-.33.06-.49Z"/><path class="d" d="m66.37,896.8c.42-.48.58-1.33.8-2.02-.23.69-.38,1.54-.8,2.02Z"/><path class="d" d="m64.1,896.1c.08.45.32.82.91,1,.31.09.56.1.78.06-.21.05-.47.04-.78-.06-.59-.18-.84-.54-.91-1Z"/><path class="d" d="m65.91,897.12c.11-.04.22-.09.31-.17-.09.07-.2.13-.31.17Z"/><path class="d" d="m61.49,930.9c-.14.21-.28.41-.43.61.14-.2.29-.41.43-.61Z"/><path class="d" d="m53.16,940.83c-.01.07-.03.13-.04.19.01-.07.03-.13.04-.19.07-.39.12-.83.18-1.27-.06.44-.12.88-.18,1.27Z"/><path class="d" d="m43.33,957.21c.53-.3,1.13-1.25,1.13-1.83.01-3.73,2.5-5.72,4.95-7.82-2.44,2.1-4.94,4.1-4.95,7.82,0,.58-.6,1.53-1.13,1.83Z"/><path class="d" d="m32.31,975.11c.4-.32.87-.64,1.43-.97,1.78-1.05,3.02-2.33,3.78-3.83-.76,1.5-2.01,2.77-3.78,3.83-.55.33-1.02.65-1.43.97Z"/><path class="d" d="m31.83,980.6c-.09-.12-.18-.25-.26-.37.08.12.17.24.26.37Z"/><path class="d" d="m21.99,995.34c-.17,1.84,1.25,2.94,2.62,4.05-1.37-1.11-2.79-2.21-2.62-4.05Z"/><path class="d" d="m239.5,518.42c.6-.29,1.39-.44,2.4-.45-1.01,0-1.8.16-2.4.45Z"/><path class="d" d="m818.14,559.24c-10.58-20.47-23.68-38.24-34.71-57.88-.54.99-.94,1.86-1.2,2.61-3.83-23.87-18.02-27.17-4.08-56.77,6.93-26.02-37.1,10.33-45.49,13.12-11.38,5.97-23.91,9.61-35.55,15.08-39.72,14.4-81.17,24.96-120.88,38.06-16.95,1.02,32.61-38.24,35.25-44.61,12.39-33.13-88.31,67.19-97.95,67.18,15.93-42.8,54.02-73.2,77.6-111.49-12.89.12-20.92,11.6-33.89,10.17h0c-39.37-6.32-70.57-33.9-101.87-56.59-16.06-11.58-21.37-30.74-35.15-44.07-11.95-4.93,20.56,67.94,20.75,77.54,14.18,57.24,32.02,120.69,4.19,176.81-15.45,31.34-44.61,57.85-80.92,58.18-7.48-1.59-27.37,1.44-13.91-10.01,36.45-20.01,52.89-61.5,66.85-97.16,7.95-28.36,23.18-59.32,15.34-88.76-21.02,52.67-55.77,98.97-84.35,147.75-.65.98-1.31,1.97-1.96,2.95-16.35,21.03-46.52,75.13-74.58,74.22-4.94-16.06,9.78-34.22,10.63-51.15,6.99-31.87,18.31-63.15,20.77-96.99-22.11,21.01-24.85,55.04-37.52,81.99-13.87,37.15-29.64,73.58-45.61,109.85,5.69-2.45,8.25-6.59,6.4-13.5,2.94,8.71-3.32,10.4-7.2,15.35,1.74,12.49-2.83,22.31-12.16,26.16-4.47,8.91-9.12,17.77-13.07,26.89-2.15,4.41-4.31,8.82-6.46,13.22,2.69-.23,4.66-.89,5.96-2.01-1.76,1.94-6.75.98-7.37,4.86-8,18.71-23.41,35.88-23.86,56.26,1.09-3.1.9-6.52.14-10.12-11.84,21.8-22.06,45.62-47.04,54.9-32.22,13.49-71.69,1.64-92.7-25.99-1.05,2.12-1.54,3.95-1.46,5.55,2.65-8.43-5.19-16.72-8.74-24.48-6.3-10.64-4.71-26.58-11.94-35.28.64.44,1.44.88,2.42,1.32-.7-7.29-1.8-14.67-2.82-21.96,7.89-1.91-20.56,361.88,21.18,219.87,15.47-29.3,29.32-78.64,63.11-90.12,18.34,2.94,34.8,9.9,53,13.95,11.66,3,23.81,10.18,35.98,7.94,13.99-4.21,18.54-19.61,24.84-31.38,5.14-6.9,8.25-15.04,8.11-23.2-.7,2.09-.81,4.35.19,6.92,9.05-15.72,16.37-32.26,22.88-49.05-2.32.56-4.01,1.44-5.05,2.64,13.87-10.73,20.27-41.45,28.57-58.46-1.74.37-3.19,1.22-4.27,2.39,38.15-60.33-5.99-39.64,77.01-53.19,14.35-1.99,20.54-17.12,24.82-29.32,1.45-10.72,11.21-10.06,19.9-11.18,18.66-2.42,37.44-4.4,56-6.98,9.93-.77,19.8-1.98,29.58-3.84,22.25,2.91,20.2-11.32,25.53-27.98,10.19-28.95,18.09-60.39,39.04-83.73,5.61-4.83,14.74-2.85,19.02-9.23,7.01-13.58,4.27-22.74,20.98-30.72,35.72-16.87,76.05-20.62,114.9-24.62,87.69-5.72,54.02-12.89,120.79,38.46,0,0,0,0,0,0,6.16,5.29,12.45,10.29,22.05,9.62Z"/><path class="d" d="m437.47,397.28c2.45,2.02,4.01,4.96,4.44,8-.42-3.03-1.98-5.97-4.44-8Z"/><path class="d" d="m297.19,558.91c-1.98,1.07-3.08,2.07-3.35,3.3.27-1.23,1.37-2.23,3.35-3.3Z"/><path class="d" d="m65.64,925.03c.76-.86,1.6-1.64,2.59-2.3-.99.66-1.83,1.44-2.59,2.3Z"/><path class="d" d="m151.38,936.37c3.47-1.55,5.6-.52,6.7,3.23-1.09-3.74-3.22-4.78-6.7-3.23Z"/><path class="d" d="m182.34,927.51c1.41-1.13,3.51-.92,5.79-.39-2.29-.54-4.38-.74-5.79.39Z"/><path class="d" d="m206.16,749.42c.15.77,1.01,1.44,1.72,2.11-.71-.67-1.56-1.33-1.72-2.11Z"/><path class="d" d="m652,80.46c1,10,39,65,63,71v9s-29,6-54-41l-1-7s-13-22-14-34l6,2Z"/><polygon class="d" points="770 145.46 788 166.46 778.01 166.46 763 155.96 750.59 155.96 738 147.46 726 148.46 705 132.46 727 142.46 739 141.46 755 150.46 764 151.46 770 145.46"/><path class="d" d="m351,348.56c-2.19-1.46-4.41-2.86-6.98-3.55-2.62-3.22-7.22-2.9-10.11-5.65-1.99-.74-3.97-1.48-5.96-2.22-5.77-2.86-11.95-4.61-18.01-6.69-1.66-.4-3.33-.8-4.99-1.2-4.13-2-8.5-3.18-13-3.91-.95-.25-1.9-.51-2.84-.76-1.06-.23-2.12-.47-3.19-.7-8.19-2.1-16.5-3.08-24.95-2.89-.67,0-1.34,0-2.01.01-5.04,0-10.1-.17-14.99,1.4-4.63.83-8.78,2.82-12.84,5.11-1.53.87-3.65,3.35-3.62-1.55.02-2.83-.33-5.87-.61-8.8.33-5.67.46-11.33-.17-16.99-.48-4.58-.66-9.21-2.78-13.45.08-1.31-.21-2.51-1.04-3.55-4.36-11.9-14.07-15.29-26.47-9.24-.49.19-.98.38-1.47.57-3.68,1.68-7.12,3.74-10.06,6.56l-5.94,3.52c-7.78,6.67-15.55,13.34-23.33,20.01-.92.8-1.83,1.61-2.75,2.41-6.66,5-13.12,10.24-19.04,16.12-.64.25-1.27.49-1.91.74-1.48-.75-1.75.22-1.91,1.35l-.04.03-6.18,5.88c1.03.05,2,.04,2.85-.1-.86.13-1.82.15-2.85.1-.63.65-1.27,1.3-1.9,1.95-5.79,3.8-11.62,7.56-15.32,13.71-.58.97-1.69,2.01-1.04,3.11.65,1.11,2.09.65,3.2.52,4.79-.54,9.47-1.48,13.69-3.99.5-.17,1.01-.33,1.51-.49,2.55-.33,4.82-1.43,7.05-2.63,5.93-1.14,11.79-3.36,17.93-1.06,1.64,1.72,3.28,3.43,4.92,5.15.75,2.27,1.5,4.53,2.24,6.8.06.67.11,1.34.17,2,.02,1.66.04,3.32.06,4.98-.06.67-.12,1.34-.19,2.02-.66,3.33-1.32,6.66-1.99,9.99-1.74,4.33-3.48,8.66-5.22,12.99-1.45,1.38-2.34,3.13-3.1,4.94-16.34,18.42-34.39,35.12-52.36,51.91-.5.38-1.01.76-1.51,1.14l-10.17,5.58c1.49,1.01,2.81,1.65,3.98,1.93-1.16-.27-2.49-.92-3.98-1.93-4.91,1.39-41.39,4.78-46.82,6.33-2.04-.05-4.07-.06-5.98.79-.67.1-1.34.2-2.01.3-.67.05-1.33.1-2,.15-1.11-.15-2.16-.05-3.12.6h0c-6.62.85-13.25,1.71-19.87,2.56-.66.14-1.33.27-1.99.41v.12c.32.36.61.54.86.57-.25-.03-.54-.22-.86-.57v9.58c4.68.29,9.29.75,14.08-.26,7.19-1.51,3.33,3.81,3.48,6.59-.19,1.08-.38,2.17-.57,3.25-1.2,1.12-.94,2.61-1,4.02-1.49,4.95-4.18,9.58-3.98,14.99-1.43,3.89-2.89,7.77-3.03,11.99-1.34,2.47-1.84,5.17-2.25,7.91.55-.2,1.04-.42,1.45-.66-.42.24-.9.46-1.45.66-.95,1.23-.67,2.69-.77,4.08-1.06.79-1.01,1.88-.82,3.01-1.87,4.27-2.84,8.78-3.48,13.38-.52,2.21-1.04,4.41-1.57,6.62-.03.2-.07.39-.1.59v44.32c1.22-.82,2.16-1.83,3.16-2.85h0c.65-.58,1.3-1.15,1.95-1.73,2.15-1.53,3.95-3.42,5.53-5.52,0,0,.11-.14.11-.14,2.3-1.11,3.54-3.37,4.97-5.22,4.49-5.76,8.58-11.84,12.82-17.79,0,0,.02-.06.02-.07,2.7-2.45,4.53-5.57,6.53-8.56,1.07-1.31,2.14-2.62,3.22-3.93,7.71-8.03,15.59-15.91,23.07-24.16,3.83-4.23,8.59-7.19,12.81-10.87-1.73-.6-3.46-1.08-5.24-1.26,1.78.18,3.51.67,5.24,1.26,2.93-1.04,5.86-2.09,8.79-3.13,2.84.06,5.01,1.46,6.86,3.48,3.71,10.41,1.29,21.03,1.06,31.58-.04,1.8-.71,3.61.04,5.41-.21.5-.41,1.01-.62,1.51-.49,4.33-.98,8.67-1.47,13-1.54,6.28-2.37,12.68-3.14,19.1,2.15-1.19,3.71-3.12,4.61-5.44-.9,2.32-2.46,4.25-4.61,5.44-.18.99-.36,1.97-.55,2.96h0c-.75,1.93-1.2,3.91-1.04,6-1.02,4.28-2.19,8.53-2.15,12.98-2.13,5.48-2.93,11.27-3.88,17.02-.32,1.33-.64,2.66-.96,3.99-.1.65-.21,1.3-.31,1.94.53-.18,1.23-.26,1.33-.87-.09.61-.79.69-1.33.87-1.69,4.91-2.79,9.96-3.71,15.06-.64,1.61-1.31,3.21-1.15,5-1.05,2.22-1.73,4.53-1.82,7-.55,1.28-1.33,2.5-1.11,4-1.55,4.94-3.6,9.75-4.07,14.99-2.85,6.07-4.1,12.66-6.17,18.99-1.1,1.84-1.78,3.81-1.93,5.96-2.5,5.83-4.32,11.88-5.72,18.06-1.1,2.9-2.03,5.85-2.18,8.99-1.13,2.2-1.86,4.5-1.82,7.01-.79,1.57-1.34,3.2-1.19,5-.99,1.54-1.02,3.26-.98,5-3.01,11.71-2.62,23.56-1.15,35.38.37,3.01-1.4,4.96-1.91,7.47-.55,2.74-1.27,5.46-1.91,8.18-1.07,3.3-2.14,6.59-3.21,9.89-1.26,3.37-2.52,6.75-3.78,10.12,1.19,1.57,2.53,2.62,4.11,3.02-1.59-.4-2.93-1.44-4.11-3.02-2.59,6.35-7.75,11.05-10.95,17-.53.98-1.69,2.07-.85,3.14.99,1.27,2.28.3,3.53-.11,9.58-3.15,16.42-9.55,21.63-17.94.22-.33.44-.66.67-1,1.64-1.92,4.16-3.23,4.33-6.18,1.57-2.94,3.14-5.87,4.71-8.81.57-.96,1.14-1.91,1.71-2.87,1.82-3.39,3.64-6.77,5.47-10.16,2.14-3.59,4.57-7.03,5.76-11.12l3.65-6.66c1.82-3.77,3.64-7.53,5.45-11.3,1.45-1.78,2.45-3.78,2.91-6.04,2.07-3.13,3.82-6.42,4.93-10.02.66-1.34,1.31-2.68,1.97-4.01,1.72-2.45,2.92-5.17,3.92-7.98,1.42-2.98,2.84-5.96,4.27-8.93,1.7-2.99,3.39-5.98,5.09-8.97.62-1.02,1.23-2.03,1.85-3.05.43-.64.85-1.27,1.28-1.91,1.92-3.02,3.83-6.05,5.75-9.07,12.86-19.42,25.71-38.85,38.57-58.26,5.69-8.6,11.4-17.19,17.1-25.78.22-.19.35-.44.37-.73-.64-1.71-1.05-3.48-.86-5.17-.19,1.69.22,3.46.86,5.17,7.15-8.95,12.94-18.84,19.41-28.25,1.53-2.31,3.05-4.62,4.58-6.93-.17-.49-.34-.99-.5-1.49.16.5.33,1,.5,1.49,2.16-3.06,4.31-6.12,6.47-9.17,0,0,.2-.35.2-.35,2.16-3.14,4.33-6.29,6.49-9.43l1.84-2.86c5.41-6.76,10.32-13.88,14.9-21.23-.68-.05-1.33-.06-1.95-.01.62-.05,1.27-.04,1.95.01,1.02-.7,1.66-1.68,2.02-2.85,5.32-6.81,10.33-13.84,14.93-21.16.47-.62.94-1.24,1.41-1.86,2.22-3.05,4.45-6.09,6.67-9.14.33-.62.67-1.23,1-1.85,3.42-3.69,6.36-7.74,8.78-12.15.21-.14.33-.34.35-.59,1.98-1.84,4.24-3.48,4.69-6.44.44-.62.87-1.24,1.31-1.85,8.22-9.35,14.69-19.97,21.88-30.07.63-.7,1.25-1.39,1.88-2.09,6.09-6.77,11.12-14.3,15.99-21.95.34-.33.68-.66,1.03-.99,2.49-1.32,3.19-4.09,4.91-6.04.73-1.26,1.46-2.53,2.19-3.79,3.4-3.04,6.27-6.47,8.21-10.63.8-1.04,1.6-2.09,2.4-3.13,4.73-4.47,8.88-9.39,11.8-15.26.6-.77,1.21-1.54,1.81-2.32,7.88-7.83,13.72-17.32,20.82-25.79,2.57-3.06-1.53-3.39-3.09-4.62Z"/></svg>