<?xml version="1.0" encoding="UTF-8"?><svg id="c" xmlns="http://www.w3.org/2000/svg" viewBox="0 0 16 16"><defs><style>.d{fill:#030302;}.e{fill:#ebebeb;}.f{fill:#f3cb10;}.g{fill:#f2cb12;}.h{fill:#bc1c28;}</style></defs><path class="d" d="m7.92.29c.62.03,1.23.09,1.84.22.98.2,1.88.59,2.71,1.11.66.4,1.23.91,1.73,1.52.64.78,1.12,1.64,1.42,2.6.3.96.47,1.94.34,2.94-.19,1.49-.71,2.84-1.67,4.02-.52.64-1.12,1.19-1.81,1.64-.82.53-1.69.96-2.65,1.15-.63.13-1.28.23-1.94.22-1.14-.02-2.23-.23-3.27-.7-1.09-.49-2.02-1.19-2.8-2.1-.83-.97-1.38-2.07-1.66-3.31C.05,9.08.01,8.54,0,7.99c-.01-.72.1-1.41.29-2.09.27-.99.73-1.87,1.39-2.66.71-.86,1.56-1.54,2.54-2.05.48-.25.97-.48,1.49-.59.73-.15,1.45-.36,2.21-.31Zm-5.22,3.96h0s-.03-.03-.05-.05c-.01-.02-.03-.03-.04-.05-.03-.14-.12-.24-.2-.35-.09-.13-.24-.14-.36-.05-.35.26-.29.85.11,1.09h0s.04.03.05.05c0,.01,0,.03,0,.04-.02.08.02.12.09.15h0c.17.33.44.58.69.84h0c.29.4.64.74,1.03,1.04.16.13.32.26.49.39.14.23.37.33.6.43.13.02.18.16.3.2.47.18.9.44,1.39.6.38.13.75.29,1.13.41.53.18,1.1.25,1.65.36.26.07.52.12.79.09.03,0,.07,0,.1,0,.06.06.14.06.22.06.33,0,.67.03,1-.06.1,0,.2,0,.3,0,.89.06,1.77-.13,2.65-.1.15,0,.36.03.49-.13.09.03.09-.07.15-.1.24-.15.13-.39.14-.59.01-.2-.09-.26-.29-.21-.38.1-.76.1-1.15.02-.3-.06-.57-.19-.85-.3h0c-.31-.24-.68-.42-.94-.74-.02-.01-.03-.03-.05-.04-.02-.02-.04-.04-.05-.05-.02-.13-.03-.25-.05-.38.03,0,.05-.02.04-.06,0-.01.01-.03.01-.04.07-.05.13-.1.2-.15h0s.03-.03.05-.04c.05,0,.1,0,.14-.01.05,0,.1,0,.14-.01.9-.2,1.67.1,2.37.65-.03,0-.07.02-.09,0-.35-.18-.75-.26-1.12-.41-.36-.14-.74-.14-1.1-.05-.33.08-.43.41-.2.61.15.13.31.25.48.36.31.19.65.26.99.37.26.08.51.15.78.14.21,0,.4-.04.51-.26.11-.22-.01-.39-.13-.56-.05-.07-.16-.1-.13-.21.32.02.36-.03.26-.35-.03-.1-.04-.2-.1-.28,0-.03,0-.06-.01-.1-.06-.26-.1-.53-.24-.76-.22-.35-.6-.43-.96-.51-.31-.07-.63-.12-.95-.14-.31-.02-.63-.08-.89.19h0c-.37.06-.7.24-1.03.39h0c-.1,0-.23.05-.28-.07-.05-.12.08-.18.15-.25.06-.06.15-.1.21-.16.12-.11.34-.07.42-.24.02,0,.03,0,.05-.01.1.03.13-.07.2-.09.03,0,.07,0,.1,0,.05,0,.09,0,.14-.01.69-.24,1.36-.13,2.03.07.13.04.3.13.37.05.09-.11-.06-.24-.12-.36,0-.02-.04-.03-.06-.04h0s0-.08-.05-.1h0c-.05-.07-.06-.16-.15-.2h0s-.04-.03-.05-.05c0-.04,0-.09-.05-.1-.02-.05-.05-.08-.1-.1h0c0-.07-.04-.11-.1-.14h0c-.18-.24-.38-.47-.61-.66h-.01c-.15-.22-.37-.35-.56-.51-.13-.09-.26-.17-.39-.26-.08-.13-.2-.2-.34-.25h0s-.02-.04-.06-.03c-.01,0-.03-.01-.04-.01-.37-.28-.79-.47-1.23-.59-.11-.05-.23-.1-.34-.15-.19-.13-.43-.12-.65-.18-.51-.14-1.05-.19-1.58-.23h-.01c-.06,0-.12,0-.18,0h-.01s-.09,0-.14,0h-.01c-.09.02-.2-.03-.28.05h0s-.01,0-.01,0c-.08-.05-.18-.04-.26-.01-.45.14-.92.16-1.37.33-.21.08-.43.11-.64.16-.07.02-.13.07-.13.12,0,.04.07.1.12.11.17.06.34.12.51.15.97.15,1.71.66,2.29,1.43h0c.08.18.16.36.25.54,0,.02,0,.03.01.05-.01.13.09.23.1.36,0,.08.06.16-.03.21-.09.05-.12-.05-.17-.09-.28-.23-.4-.57-.65-.83h0c-.19-.32-.34-.69-.74-.82-.01,0-.03-.01-.04,0-.05-.11-.16-.1-.25-.1h0c-.34-.2-.7-.32-1.08-.43-.12-.04-.24-.08-.36-.12-.33-.1-.6-.11-.9.1-.39.27-.84.48-1.17.84-.03.04-.11.06-.06.14.04.08.11.02.15.01.2-.05.4-.05.6-.04.12,0,.23.07.36.04.07,0,.12.08.2.05.5.16.96.41,1.4.7.44.3.52.77.17,1.05-.14.11-.31.11-.48.12-.27.02-.53-.03-.8-.05-.21-.05-.42-.1-.63-.15-.3-.15-.59-.3-.89-.45l-.05-.04-.05-.05Zm3.43,10.62c.14,0,.21-.06.25-.18.09-.29.19-.57.29-.85.45-1.33.94-2.65,1.45-3.96.08-.2,0-.26-.12-.31-.32-.12-.64-.23-.96-.34-.51-.17-1-.41-1.52-.57-.16-.05-.2,0-.26.12-.16.3-.25.63-.36.95-.29.79-.56,1.59-.82,2.4-.13.42-.35.8-.45,1.23-.04.17,0,.3.16.41.69.43,1.43.74,2.17,1.06.06.03.12.04.16.05Zm2.37.23c.2-.01.41-.02.61-.04.16-.02.27-.1.32-.27.12-.38.25-.75.38-1.12.19-.58.36-1.16.57-1.73.22-.57.33-1.17.6-1.72.05-.11.07-.28-.15-.27-.37.02-.74-.07-1.12-.06-.2,0-.4-.03-.59-.08-.45-.11-.6-.06-.72.29-.54,1.49-1.07,2.99-1.61,4.48-.11.31,0,.47.33.47.46,0,.92.1,1.38.04ZM2.99,6.87c-.15-.02-.17.08-.19.16-.19.65-.44,1.28-.66,1.93-.2.58-.39,1.17-.6,1.75-.07.18-.07.38.04.54.44.69.93,1.33,1.5,1.91.13.13.21.11.26-.05.16-.58.43-1.12.62-1.69.33-.96.68-1.92,1.02-2.87.04-.1.06-.22-.04-.25-.13-.03-.19-.14-.29-.2-.54-.3-1.02-.68-1.46-1.11-.06-.06-.14-.11-.2-.12Zm9.02,3.14c-.61,0-.67.05-.81.64-.15.65-.33,1.29-.57,1.91-.27.71-.52,1.42-.76,2.14-.07.2,0,.28.2.22.29-.09.58-.19.87-.3.32-.13.64-.27.94-.43.22-.12.47-.26.53-.53.08-.33.19-.64.3-.95.29-.87.59-1.73.88-2.6.02-.07.12-.16.03-.23-.08-.06-.19-.07-.3-.04-.44.11-.89.2-1.32.18ZM1.77,5.43c-.11.04-.12.14-.15.23-.28.83-.56,1.66-.84,2.49-.06.18-.13.35-.1.54.09.57.27,1.12.43,1.66.01.04.03.14.11.14.1,0,.12-.11.14-.18.41-1.21.86-2.4,1.25-3.62.04-.13.03-.23-.04-.31-.21-.29-.44-.58-.67-.86-.03-.04-.09-.06-.14-.09Zm11.25,7.92s.05-.04.07-.06c.46-.44.91-.89,1.24-1.44.4-.67.73-1.36.9-2.13.04-.2-.03-.23-.17-.19-.21.06-.44.1-.65.12-.31.04-.4.19-.48.46-.16.58-.33,1.17-.53,1.74-.16.45-.3.91-.43,1.37-.02.05-.04.11.04.14ZM3.25,3.27c-.09,0-.18,0-.27,0-.21-.02-.34.09-.41.28-.06.18.04.3.16.43.22.23.49.36.77.47.48.2.96.36,1.49.36.22,0,.38-.09.44-.28.06-.19.07-.4-.14-.55-.61-.46-1.29-.66-2.04-.71ZM.64,7.66c.23-.33.3-.69.41-1.03.16-.48.38-.93.49-1.43.03-.12,0-.2-.08-.24-.09-.04-.19-.01-.23.1-.02.04-.05.08-.07.12-.31.78-.58,1.57-.52,2.47Z"/><path class="f" d="m9.57,9.37c-.55-.12-1.12-.19-1.65-.36-.38-.12-.75-.29-1.13-.41-.48-.16-.92-.42-1.39-.6-.11-.04-.16-.18-.3-.2-.12-.25-.37-.32-.6-.43-.16-.13-.32-.26-.49-.39,0-.06.03-.15-.03-.18-.26-.15-.43-.41-.65-.6-.1-.09-.18-.15-.05-.3-.13.02-.21.04-.3.05,0,0,0,0,0,0,.02-.1-.07-.21.02-.32.05-.06-.04-.14-.09-.12-.16.06-.2-.03-.26-.16-.07-.15-.2-.23-.36-.25,0,0,0,0,0,0,0-.07,0-.14-.09-.15,0-.01-.01-.02,0-.04-.02-.02-.04-.04-.05-.06,0,0,0,0,0,0-.03-.15-.13-.26-.2-.39-.09-.17-.05-.47.09-.53.18-.08.35-.08.41.16.02.07.09.05.15.06.01.02.03.03.04.05.02.02.03.03.05.05,0,0,0,0,0,0,.02.02.03.03.05.05.02.01.03.03.05.04.15.4.56.61.89.45.21.05.42.1.63.15.05.11-.13.25.06.35.18.1.27-.05.38-.13.18-.12.55-.11.74.05.1.08.21.1.31.04.09-.06.12-.19.06-.26-.13-.16-.04-.26.06-.35.09-.09.12-.16.03-.28-.16-.22-.25-.47-.26-.75,0-.25-.25-.38-.46-.23-.1.07-.15.09-.25.01-.09-.07-.14-.12-.09-.24.07-.18-.02-.22-.19-.23-.13-.01-.22.15-.34.07-.18-.12-.26,0-.33.13-.08.03-.12-.06-.2-.05-.01-.12-.09-.14-.19-.14-.13,0-.26,0-.39,0-.07,0-.14,0-.15-.09,0-.11.06-.09.13-.07.04.01.09,0,.1-.04.02-.2.3-.16.33-.36,0-.03.07-.05.09.02.07.31.32.19.5.19.18,0,.11-.18.12-.29.02-.16.07-.22.24-.13.12.07.25.1.39.03.15-.08.24-.04.17.16-.01.04-.01.08,0,.12,0,.08-.02.18.11.17.12-.01.07-.1.05-.17-.02-.06,0-.12.06-.14.08-.04.16-.03.24,0,.09.04.03.08,0,.13-.04.14.05.16.16.18.19.04.33-.13.52-.1,0,0,0,0,0,0,.03.17.16.08.25.1.02,0,.03,0,.04,0-.01.19.03.32.26.35.14.01.22.13.12.29-.04.07-.05.16.04.13.14-.05.21.07.32.06,0,0,0,0,0,0-.01.15-.05.35.07.44.19.15.3.33.4.53.07.13.21.14.34.16.06,0,.12-.01.12-.09,0-.09.05-.17.07-.25.06-.22-.05-.4-.26-.44,0-.02-.01-.03-.01-.05.15-.33.12-.4-.25-.54,0,0,0,0,0,0-.02-.17.1-.19.25-.19-.1-.1-.19-.15-.22-.27-.02-.08-.11-.13-.17-.12-.27.04-.4-.15-.54-.31-.04-.05-.07-.1-.14-.11-.09-.02-.2-.04-.2-.15,0-.15.13-.08.21-.1.1-.03.12-.09.12-.18,0-.11-.08-.16-.16-.19-.07-.02-.11.02-.12.09-.02.14-.06.22-.22.16-.11-.04-.25.02-.34-.11-.08-.11-.11-.2.03-.29.09-.06.21-.13.25-.22.13-.26.34-.2.54-.17.38.06.78.08,1.15,0,.43-.08.82.07,1.22.08.03,0,.07.02.08.05.17.31.41.15.63.09l.34.15c.06.31.12.34.45.31.09,0,.18.01.22.07.14.2.36.17.56.22.02,0,.03,0,.04.01.02.01.04.02.06.04,0,0,0,0,0,0-.01.08-.03.16-.04.23-.01.07-.02.13.04.18.07.06.14.02.2-.01.07-.03.12-.08.15-.15.13.09.26.17.39.26.06.26.3.37.47.52.01.01.06-.01.09-.02,0,0,.01.01.01.01-.04.06-.01.11.03.15.13.14.28.26.39.43.04.07.12.08.19.07,0,0,0,0,0,0,0,.08,0,.15.1.14,0,0,0,0,0,0,0,.06-.04.14.03.17.05.02.05-.04.06-.08.05.02.05.06.05.1.02.02.04.04.05.05,0,0,0,0,0,0,0,.11-.02.22.15.2,0,0,0,0,0,0,0,.04,0,.08.05.1,0,0,0,0,0,0-.04.08.05.32-.13.21-.22-.13-.45-.09-.67-.14-.35-.07-.73-.04-1.09,0-.17.02-.42-.04-.48.23-.03,0-.07,0-.1,0,0-.08-.06-.11-.13-.08-.09.03-.05.11-.06.18-.01,0-.03.01-.05.01-.1-.1-.18-.14-.29,0-.08.1-.18.25-.36.11-.05-.04-.16,0-.12.08.07.19-.05.27-.17.35-.04.03-.1.07-.06.11.08.08.17.17.27.2.07.02.22.04.25-.12,0,0,0,0,0,0,.14,0,.27,0,.39.09.12.1.22.07.27-.1.02-.07,0-.21.15-.17.19.05.22-.07.23-.21,0,0,0,0,0,0,.14-.03.14.1.2.17.08.1.19.09.29.06.06-.02.06-.08.02-.12-.15-.21,0-.21.14-.21.12,0,.24,0,.37,0,.11,0,.22,0,.17.18-.03.11.07.14.13.11.18-.11.38-.02.56-.07.06-.02.14-.04.19,0,.06.07-.04.11-.06.16-.06.12-.1.26.03.32.09.04.27.04.27-.16,0-.06.04-.09.09-.09.06,0,.09.02.08.09-.03.11.06.13.12.14.13.02.16.07.13.2-.07.3-.01.38.3.45,0,.03,0,.06.01.1-.1,0-.1.06-.07.13.04.08.08.16.1.24.01.05.02.18-.07.13-.18-.1-.44-.11-.53-.35-.06-.16-.11-.25-.29-.14-.04.03-.09.01-.11-.03-.05-.15-.32-.19-.2-.42.02-.04-.01-.08-.05-.1-.05-.03-.1-.02-.13.02-.04.05-.08.11-.08.17,0,.16-.08.18-.22.18-.27,0-.54,0-.81,0-.11,0-.2,0-.21.14-.05,0-.1,0-.14.01-.01,0-.02-.02-.04-.02,0,.02-.01.04-.02.07,0,0,0,0,0,0-.11,0-.22,0-.2.15,0,.02,0,.03-.01.04-.01.02-.03.04-.04.06.02.13.03.25.05.38.02.02.04.04.05.05.02.01.03.03.05.04-.05.1.02.22-.09.31-.04.03-.01.11.04.15.04.03.1.04.14,0,.16-.14.26-.04.37.07.13.13.27.24.47.2,0,0,0,0,0,0,.07.19.2.28.41.31.21.03.42.08.63.16.17.07.36.11.55-.03.14-.1.35-.03.52-.03.09,0,.09.08.09.15-.01.18-.03.35-.05.53-.05.03-.05.13-.15.1-.46-.03-.92.05-1.38-.04-.04,0-.08,0-.11.03-.29.21-.63.14-.92.07-.22-.05-.41.02-.62,0-.1-.01-.12.09-.12.18-.1,0-.2,0-.3,0-.05-.05-.12-.07-.17-.12-.14-.12-.33-.12-.47-.01-.1.08-.19.09-.31.1-.09,0-.19-.03-.28.04-.03,0-.07,0-.1,0-.25-.17-.51-.18-.79-.09Zm-2.92-5.71c-.02-.06-.06-.08-.11-.08-.06,0-.11.04-.11.11,0,.06.04.09.1.07.05-.02.11-.03.12-.1Zm-2.29,3.02c-.05.02-.12.02-.12.09,0,.06.05.08.1.08.05,0,.1-.02.11-.08.01-.06-.02-.09-.08-.1Zm-.99-.93s-.01.03-.02.04c.01,0,.03.02.04.02,0,0,.01-.03.02-.04-.01,0-.03-.01-.04-.02Zm7.22-.5s0-.04-.02-.04c0,0-.03,0-.04.01,0,.01,0,.04.02.04,0,0,.03,0,.04-.01Z"/><path class="e" d="m6.13,14.88s-.1-.03-.16-.05c-.74-.32-1.48-.64-2.17-1.06-.17-.11-.2-.23-.16-.41.1-.43.31-.81.45-1.23.26-.8.54-1.6.82-2.4.11-.32.2-.65.36-.95.06-.11.1-.17.26-.12.52.16,1,.4,1.52.57.32.11.64.21.96.34.13.05.2.12.12.31-.51,1.31-1,2.63-1.45,3.96-.1.28-.2.57-.29.85-.04.12-.11.17-.25.18Z"/><path class="e" d="m8.5,15.11c-.46.06-.92-.04-1.38-.04-.34,0-.44-.16-.33-.47.54-1.49,1.07-2.99,1.61-4.48.12-.34.27-.39.72-.29.19.05.4.08.59.08.38-.01.74.08,1.12.06.21-.01.2.16.15.27-.27.55-.38,1.15-.6,1.72-.22.57-.38,1.15-.57,1.73-.12.37-.26.75-.38,1.12-.05.16-.16.25-.32.27-.2.02-.41.03-.61.04Z"/><path class="e" d="m2.99,6.87c.06.02.14.06.2.12.44.43.92.81,1.46,1.11.1.06.16.17.29.2.1.03.08.15.04.25-.35.96-.69,1.91-1.02,2.87-.2.57-.46,1.11-.62,1.69-.04.15-.13.18-.26.05-.57-.59-1.06-1.23-1.5-1.91-.11-.17-.11-.36-.04-.54.21-.58.4-1.17.6-1.75.22-.64.47-1.28.66-1.93.02-.08.03-.18.19-.16Z"/><path class="e" d="m12,10.01c.43.02.87-.07,1.32-.18.11-.03.22-.02.3.04.09.07,0,.16-.03.23-.29.87-.59,1.73-.88,2.6-.1.31-.22.62-.3.95-.06.26-.31.4-.53.53-.3.17-.62.3-.94.43-.28.12-.57.21-.87.3-.2.06-.26-.02-.2-.22.24-.72.49-1.43.76-2.14.24-.62.41-1.26.57-1.91.14-.59.19-.63.81-.64Z"/><path class="e" d="m1.77,5.43s.1.05.14.09c.23.28.46.57.67.86.06.08.08.18.04.31-.39,1.22-.84,2.41-1.25,3.62-.02.07-.04.18-.14.18-.07,0-.1-.1-.11-.14-.16-.55-.34-1.1-.43-1.66-.03-.19.04-.36.1-.54.28-.83.56-1.66.84-2.49.03-.09.04-.19.15-.23Z"/><path class="e" d="m13.02,13.35c-.09-.03-.06-.08-.04-.14.13-.46.27-.92.43-1.37.2-.57.37-1.15.53-1.74.07-.26.16-.42.48-.46.21-.02.44-.06.65-.12.13-.04.21-.01.17.19-.17.77-.5,1.47-.9,2.13-.33.55-.78,1.01-1.24,1.44-.02.02-.05.04-.07.06Z"/><path class="h" d="m14.98,7.15c-.03.12.08.14.13.21.11.17.23.33.13.56-.11.22-.3.26-.51.26-.27,0-.52-.06-.78-.14-.34-.11-.68-.18-.99-.37-.17-.11-.33-.23-.48-.36-.23-.2-.13-.53.2-.61.36-.09.74-.09,1.1.05.37.14.76.22,1.12.41.02.01.06,0,.09,0,0,0,0,0,0,0Z"/><path class="h" d="m3.25,3.27c.75.04,1.43.25,2.04.71.2.15.19.36.14.55-.06.19-.22.28-.44.28-.53,0-1.01-.16-1.49-.36-.28-.12-.56-.24-.77-.47-.12-.13-.22-.25-.16-.43.06-.19.2-.29.41-.28.09,0,.18,0,.27,0Z"/><path class="g" d="m10.17,1.3c-.22.07-.46.23-.63-.09-.01-.02-.05-.05-.08-.05-.41-.01-.8-.16-1.22-.08-.37.07-.76.05-1.15,0-.2-.03-.41-.09-.54.17-.04.09-.16.16-.25.22-.13.09-.1.18-.03.29.09.12.23.06.34.11.16.06.2-.02.22-.16,0-.06.05-.11.12-.09.09.03.17.07.16.19,0,.09-.02.16-.12.18-.07.02-.21-.05-.21.1,0,.1.12.13.2.15.07.01.1.06.14.11.14.16.27.35.54.31.06-.01.16.04.17.12.02.12.12.17.22.27-.15,0-.28.01-.25.19-.58-.78-1.32-1.28-2.29-1.43-.18-.03-.35-.09-.51-.15-.05-.02-.12-.07-.12-.11,0-.06.06-.11.13-.12.22-.05.44-.09.64-.16.44-.16.92-.19,1.37-.33.08-.02.18-.04.26.01,0,0,0,.02,0,.02h.01c.08-.09.18-.05.28-.06,0,0,0,.01,0,.01h0s.09-.01.14-.01c0,0,0,.01,0,.01h0c.06-.01.12-.01.18-.01,0,0,0,.01,0,.01h0c.53.03,1.07.08,1.58.22.21.06.45.04.65.18Z"/><path class="g" d="m4.02,3.12c.07-.14.15-.25.33-.13.12.08.21-.08.34-.07.17.02.26.06.19.23-.04.12,0,.17.09.24.1.07.16.05.25-.01.21-.15.45-.02.46.23,0,.28.1.53.26.75.1.13.07.19-.03.28-.1.1-.19.2-.06.35.06.08.03.21-.06.26-.1.07-.21.05-.31-.04-.19-.16-.56-.17-.74-.05-.11.07-.2.22-.38.13-.18-.1,0-.24-.06-.35.27.01.53.07.8.05.17-.01.34-.01.48-.12.35-.28.27-.75-.17-1.05-.43-.29-.89-.54-1.4-.7Zm.62.04s-.03-.02-.04-.02c0,0-.01.03-.02.04.01,0,.03.02.04.02,0,0,.01-.03.02-.04Z"/><path class="g" d="m6.29,2.54c-.18-.02-.32.15-.52.1-.11-.02-.2-.04-.16-.18.02-.05.08-.09,0-.13-.08-.04-.16-.05-.24,0-.06.03-.08.08-.06.14.02.07.07.15-.05.17-.13.01-.11-.09-.11-.17,0-.04,0-.08,0-.12.07-.2-.02-.23-.17-.16-.14.07-.27.04-.39-.03-.17-.09-.22-.03-.24.13-.01.11.05.29-.12.29-.18,0-.42.12-.5-.19-.02-.07-.08-.04-.09-.02-.03.2-.31.16-.33.36,0,.05-.06.06-.1.04-.07-.02-.14-.04-.13.07,0,.09.08.09.15.09.13,0,.26,0,.39,0,.1,0,.18.02.19.14-.12.04-.24-.03-.36-.04-.2-.01-.4-.01-.6.04-.04.01-.11.07-.15-.01-.04-.08.03-.1.06-.14.33-.36.77-.56,1.17-.84.3-.21.58-.21.9-.1.12.04.24.08.36.12.37.11.74.23,1.08.43Z"/><path class="e" d="m.64,7.66c-.06-.9.21-1.69.52-2.47.02-.04.05-.08.07-.12.04-.12.14-.14.23-.1.09.04.11.12.08.24-.12.49-.34.95-.49,1.43-.11.34-.18.7-.41,1.03Z"/><path class="g" d="m15.12,6.42c-.32-.08-.37-.15-.3-.45.03-.13,0-.18-.13-.2-.06,0-.15-.03-.12-.14.02-.06-.02-.09-.08-.09-.06,0-.09.03-.09.09,0,.2-.19.2-.27.16-.13-.06-.09-.21-.03-.32.03-.05.13-.09.06-.16-.04-.05-.12-.03-.19,0-.18.05-.38-.03-.56.07-.06.03-.16,0-.13-.11.05-.17-.06-.18-.17-.18-.12,0-.24,0-.37,0-.15,0-.29,0-.14.21.03.04.03.11-.02.12-.1.03-.21.03-.29-.06-.06-.07-.06-.2-.2-.17.25-.26.58-.2.89-.19.32.02.64.07.95.14.36.08.74.16.96.51.14.23.18.5.24.76Z"/><path class="g" d="m12.47,6.52c.01-.13.11-.14.21-.14.27,0,.54,0,.81,0,.13,0,.22-.02.22-.18,0-.06.05-.12.08-.17.03-.04.08-.05.13-.02.04.02.07.06.05.1-.12.23.16.27.2.42.01.04.07.05.11.03.17-.12.23-.02.29.14.09.23.35.25.53.35.09.05.08-.08.07-.13-.02-.08-.07-.16-.1-.24-.03-.07-.03-.13.07-.13.07.08.07.19.1.28.1.32.07.37-.26.35,0,0,0,0,0,0-.7-.55-1.46-.85-2.37-.65-.05,0-.09,0-.14.01Z"/><path class="g" d="m11.98,9.46c0-.09.02-.19.12-.18.2.03.4-.05.62,0,.29.07.63.13.92-.07.03-.02.08-.04.11-.03.46.09.92.01,1.38.04-.13.16-.34.14-.49.13-.89-.03-1.77.16-2.65.1Z"/><path class="g" d="m11.88,4.75c.06-.27.31-.21.48-.23.36-.03.74-.06,1.09,0,.22.05.45,0,.67.14.17.1.09-.13.13-.21.02.01.05.02.06.04.06.12.21.26.12.36-.07.08-.24-.01-.37-.05-.67-.21-1.35-.31-2.03-.07-.05.02-.09.02-.14.01Z"/><path class="g" d="m8.06,3.82c.21.04.32.22.26.44-.02.08-.07.16-.07.25,0,.07-.06.1-.12.09-.13-.02-.27-.03-.34-.16-.1-.2-.21-.39-.4-.53-.12-.09-.08-.29-.07-.44.24.25.37.6.65.83.05.04.08.14.17.09.09-.05.03-.13.03-.21-.01-.13-.12-.23-.1-.36Z"/><path class="g" d="m15.27,9.12c.02-.18.03-.35.05-.53,0-.07,0-.15-.09-.15-.18,0-.38-.07-.52.03-.19.14-.38.1-.55.03-.21-.08-.42-.13-.63-.16-.21-.03-.34-.11-.41-.31.28.11.55.24.85.3.39.08.77.08,1.15-.02.2-.05.31,0,.29.21-.01.2.1.44-.14.59Z"/><path class="g" d="m11.05,5.58c-.02.16-.18.14-.25.12-.1-.02-.19-.12-.27-.2-.04-.04.02-.08.06-.11.12-.08.25-.16.17-.35-.03-.09.07-.12.12-.08.18.14.28-.01.36-.11.12-.14.2-.1.29,0-.08.18-.3.13-.42.24-.06.06-.15.1-.21.16-.07.07-.2.13-.15.25.05.12.18.07.28.07Z"/><path class="g" d="m12.08,5.19c0,.14-.03.26-.23.21-.14-.04-.13.1-.15.17-.05.17-.15.2-.27.1-.12-.1-.25-.09-.39-.09.33-.16.66-.34,1.03-.39Z"/><path class="g" d="m2.6,4.16c-.06,0-.12.02-.15-.06-.07-.24-.24-.24-.41-.16-.14.06-.18.36-.09.53.07.13.17.24.2.39-.39-.24-.46-.83-.11-1.09.12-.09.27-.09.36.05.07.11.17.21.2.35Z"/><path class="g" d="m11.74,2.05c-.2-.05-.42-.02-.56-.22-.04-.06-.13-.08-.22-.07-.34.04-.39,0-.45-.31.45.12.86.31,1.23.59Z"/><path class="g" d="m13.12,8.04c-.2.04-.35-.07-.47-.2-.11-.11-.22-.21-.37-.07-.04.03-.09.03-.14,0-.05-.04-.08-.12-.04-.15.11-.09.04-.21.09-.31.26.32.62.5.94.74Z"/><path class="g" d="m10.46,9.46c.08-.07.19-.03.28-.04.11,0,.2-.02.31-.1.13-.1.32-.1.47.01.06.05.13.07.17.12-.33.08-.67.06-1,.06-.08,0-.16,0-.22-.06Z"/><path class="g" d="m7.32,3.47c-.11.01-.18-.11-.32-.06-.08.03-.08-.06-.04-.13.1-.15.02-.27-.12-.29-.24-.02-.28-.15-.26-.35.41.13.55.5.74.82Z"/><path class="g" d="m2.98,5.94c.09-.02.17-.03.3-.05-.13.15-.05.22.05.3.22.19.39.45.65.6.06.04.03.12.03.18-.39-.3-.75-.64-1.03-1.04Z"/><path class="g" d="m2.3,5.1c.16.02.29.1.36.25.05.12.09.21.26.16.06-.02.15.05.09.12-.09.11,0,.22-.02.32-.25-.26-.51-.51-.69-.84Z"/><path class="g" d="m3.68,4.8c-.33.16-.73-.05-.89-.45.3.15.59.3.89.45Z"/><path class="g" d="m12.18,2.34c-.03.07-.08.12-.15.15-.06.03-.13.08-.2.01-.06-.05-.05-.11-.04-.18.02-.08.03-.16.04-.23.14.05.26.12.34.25Z"/><path class="g" d="m7.8,3.23c.37.13.4.21.25.54-.08-.18-.16-.36-.25-.54Z"/><path class="g" d="m13.75,3.77c-.08,0-.15,0-.19-.07-.1-.17-.26-.29-.39-.43-.04-.04-.07-.09-.03-.15.23.19.43.42.61.66Z"/><path class="g" d="m9.57,9.37c.28-.09.54-.08.79.09-.27.03-.53-.02-.79-.09Z"/><path class="g" d="m13.13,3.1s-.08.03-.09.02c-.18-.16-.41-.26-.47-.52.19.17.41.29.56.5Z"/><path class="g" d="m4.51,7.36c.22.11.48.18.6.43-.23-.11-.46-.21-.6-.43Z"/><path class="g" d="m11.59,4.84c0-.06-.03-.15.06-.18.07-.02.12,0,.13.08-.07.02-.1.13-.2.09Z"/><path class="g" d="m6.54,2.64c-.09-.02-.22.07-.25-.1.09,0,.2-.01.25.1Z"/><path class="g" d="m14.2,4.36c-.17.02-.16-.09-.15-.2.09.04.1.13.15.2Z"/><path class="g" d="m12.08,6.72c-.02-.16.09-.16.2-.15-.07.05-.13.1-.2.15Z"/><path class="g" d="m13.95,4.01s0,.1-.06.08c-.07-.03-.03-.11-.03-.17.05.02.08.05.1.1Z"/><path class="g" d="m2.21,4.95c.1,0,.09.08.09.15-.07-.03-.11-.07-.09-.15Z"/><path class="g" d="m13.86,3.91c-.11,0-.11-.07-.1-.14.06.03.11.07.1.14Z"/><path class="g" d="m12.28,6.57s.01-.04.02-.07c.01,0,.02.02.04.02-.02.01-.03.03-.05.04Z"/><path class="g" d="m14.25,4.45s-.05-.06-.05-.1c.05.02.05.06.05.1Z"/><path class="g" d="m2.7,4.26s-.03-.03-.05-.05c.02.02.03.03.05.05Z"/><path class="g" d="m14.05,4.16s-.04-.04-.05-.05c.02.02.04.04.05.05Z"/><path class="g" d="m11.84,2.09s-.04-.02-.06-.04c.03,0,.05,0,.06.04Z"/><path class="g" d="m12.14,7.26s-.04-.04-.05-.05c.02.02.04.04.05.05Z"/><path class="g" d="m2.75,4.31s-.03-.03-.05-.05c.02.02.03.03.05.05Z"/><path class="g" d="m12.03,6.82s.03-.04.04-.06c0,.03-.01.05-.04.06Z"/><polygon class="h" points="7.74 .89 7.73 .91 7.73 .89 7.74 .89"/><polygon class="h" points="7.59 .89 7.58 .91 7.58 .89 7.59 .89"/><polygon class="h" points="7.3 .94 7.29 .96 7.28 .94 7.29 .93 7.3 .94"/><polygon class="h" points="7.94 .9 7.93 .91 7.92 .9 7.94 .9"/><path class="g" d="m2.15,4.85s.04.04.05.06c-.02-.02-.04-.04-.05-.06Z"/><path class="g" d="m6.66,3.66c0,.07-.07.08-.12.1-.05.02-.1,0-.1-.07,0-.07.05-.1.11-.11.05,0,.09.02.11.08Z"/><path class="g" d="m4.36,6.68c.06,0,.09.04.08.1-.01.05-.05.08-.11.08-.05,0-.1-.03-.1-.08,0-.07.07-.07.12-.09Z"/><path class="g" d="m3.37,5.75s.03.01.04.02c0,.01,0,.04-.02.04,0,0-.03,0-.04-.02,0-.01.01-.03.02-.04Z"/><path class="g" d="m10.59,5.26s-.03.02-.04.01c0,0-.01-.03-.02-.04.01,0,.03-.02.04-.01,0,0,.01.03.02.04Z"/><path class="f" d="m4.64,3.17s0,.03-.02.04c0,0-.03,0-.04-.02,0-.01,0-.03.02-.04,0,0,.03,0,.04.02Z"/></svg>